Patient4_TMGait_0pt5_01_right_03_GRF.mot
version=1
nRows=46
nColumns=19
inDegrees=no
endheader
time	F1x	F1y	F1z	M1x	M1y	M1z	F2x	F2y	F2z	M2x	M2y	M2z	EC1x	EC1y	EC1z	EC2x	EC2y	EC2z
3.21	-11.0908	780.3448	74.432	-288.5794	-63.5342	628.0022	-3.3603	8.2742	9.0846	0.1231	-13.5521	8.4122	-0.0592	0.0182	-0.0073	-0.0462	0.0165	0.9585
3.2236	-8.4025	770.7788	70.7523	-285.185	-59.0201	620.2845	-2.3157	6.2069	6.31	0.27556	-9.3436	6.2422	-0.0592	0.0182	-0.0073	-0.0462	0.0165	0.9585
3.2371	-5.4008	760.7942	67.2442	-281.6216	-54.5072	611.1724	-1.4489	4.4851	3.8741	0.43428	-5.6598	4.4319	-0.0592	0.0182	-0.0073	-0.0462	0.0165	0.9585
3.2507	-2.2807	751.3676	64.0965	-278.2668	-50.2364	601.428	-0.80885	3.2081	1.9596	0.58102	-2.7736	3.0805	-0.0592	0.0182	-0.0073	-0.0462	0.0165	0.9585
3.2643	0.77127	743.3521	61.3665	-275.4552	-46.33	591.8568	-0.38404	2.3618	0.59076	0.70754	-0.71821	2.1788	-0.0592	0.0182	-0.0073	-0.0462	0.0165	0.9585
3.2779	3.6356	737.3411	59.0416	-273.4217	-42.8282	583.1016	-0.14646	1.8724	-0.3004	0.80961	0.61149	1.6595	-0.0592	0.0182	-0.0073	-0.0462	0.0165	0.9585
3.2914	6.2521	733.6378	57.0541	-272.2874	-39.6978	575.575	-0.047865	1.6319	-0.82229	0.88195	1.3746	1.4022	-0.0592	0.0182	-0.0073	-0.0462	0.0165	0.9585
3.305	8.642	732.244	55.3466	-272.0554	-36.8846	569.4097	-0.049412	1.5166	-1.0813	0.91424	1.7368	1.2784	-0.0592	0.0182	-0.0073	-0.0462	0.0165	0.9585
3.3186	10.8774	732.9152	53.8457	-272.6307	-34.2993	564.5252	-0.12313	1.3994	-1.1702	0.89021	1.8462	1.1649	-0.0592	0.0182	-0.0073	-0.0462	0.0165	0.9585
3.3321	13.0552	735.2216	52.5238	-273.8419	-31.8847	560.681	-0.24213	1.1558	-1.1603	0.78729	1.8165	0.94288	-0.0592	0.0182	-0.0073	-0.0462	0.0165	0.9585
3.3457	15.2862	738.644	51.3591	-275.4774	-29.5809	557.5525	-0.38777	0.67371	-1.1055	0.57876	1.7286	0.51268	-0.0592	0.0182	-0.0073	-0.0462	0.0165	0.9585
3.3593	17.6506	742.6556	50.3718	-277.3194	-27.3718	554.8153	-0.53153	-0.15556	-1.0347	0.2329	1.6219	-0.23086	-0.0592	0.0182	-0.0073	-0.0462	0.0165	0.9585
3.3729	20.2083	746.7585	49.5671	-279.1602	-25.2374	552.1694	-0.64289	-1.4147	-0.95671	-0.2765	1.5033	-1.3645	-0.0592	0.0182	-0.0073	-0.0462	0.0165	0.9585
3.3864	22.9697	750.4755	48.9642	-280.8002	-23.1909	549.3502	-0.67658	-3.1369	-0.86081	-0.95864	1.3496	-2.9191	-0.0592	0.0182	-0.0073	-0.0462	0.0165	0.9585
3.4	25.9223	753.3355	48.566	-282.0466	-21.244	546.1031	-0.57096	-5.2462	-0.72437	-1.7828	1.1202	-4.8301	-0.0592	0.0182	-0.0073	-0.0462	0.0165	0.9585
3.4136	29.0185	754.873	48.3918	-282.711	-19.4406	542.1787	-0.25697	-7.4943	-0.5133	-2.6553	0.75899	-6.8809	-0.0592	0.0182	-0.0073	-0.0462	0.0165	0.9585
3.4271	32.184	754.665	48.4476	-282.6222	-17.8235	537.3457	0.35585	-9.4023	-0.19049	-3.3931	0.1984	-8.6502	-0.0592	0.0182	-0.0073	-0.0462	0.0165	0.9585
3.4407	35.3381	752.3617	48.739	-281.6354	-16.4405	531.4064	1.3589	-10.1627	0.26964	-3.6855	-0.61642	-9.4059	-0.0592	0.0182	-0.0073	-0.0462	0.0165	0.9585
3.4543	38.3939	747.7219	49.2642	-279.6521	-15.3285	524.2243	2.8357	-8.5837	0.87381	-3.0722	-1.72	-8.0649	-0.0592	0.0182	-0.0073	-0.0462	0.0165	0.9585
3.4679	41.2844	740.6544	50.0128	-276.6372	-14.5076	515.7548	4.8092	-3.0638	1.5852	-0.93482	-3.0902	-3.1745	-0.0592	0.0182	-0.0073	-0.0462	0.0165	0.9585
3.4814	43.9488	731.159	50.9496	-272.5922	-13.9731	506.0092	7.1871	8.3562	2.3145	3.4801	-4.6103	7.0474	-0.0592	0.0182	-0.0073	-0.0462	0.0165	0.9585
3.495	46.338	719.2225	51.994	-267.522	-13.6863	494.9779	9.7014	27.7646	2.8884	10.973	-6.0116	24.5003	-0.0592	0.0182	-0.0073	-0.0462	0.0165	0.9585
3.5086	48.3861	704.7206	52.9896	-261.4035	-13.5594	482.5711	11.782	56.968	3.0338	22.2303	-6.8185	50.8461	-0.0592	0.0182	-0.0073	-0.0462	0.0165	0.9585
3.5221	49.998	687.363	53.7265	-254.1659	-13.4867	468.5966	12.3998	96.8858	2.4066	37.5927	-6.3147	86.9613	-0.0592	0.0182	-0.0073	-0.0462	0.0165	0.9585
3.5357	51.0573	666.6926	53.942	-245.6907	-13.3337	452.7573	10.2492	146.7956	0.70065	56.7683	-3.724	132.2678	-0.0592	0.0182	-0.0073	-0.0462	0.0165	0.9585
3.5493	51.4337	642.157	53.3903	-235.832	-12.9855	434.7041	4.801	203.9228	-2.284	78.6713	1.3253	184.3313	-0.0592	0.0182	-0.0073	-0.0462	0.0165	0.9585
3.5629	51.0393	613.2361	51.8706	-224.4603	-12.3331	414.0843	-3.1395	263.2683	-6.527	101.375	8.4866	238.5771	-0.0592	0.0182	-0.0073	-0.0462	0.0165	0.9585
3.5764	49.8372	579.5617	49.3424	-211.4949	-11.3573	390.6103	-12.1646	319.19	-11.6076	122.7414	16.7893	289.686	-0.0592	0.0182	-0.0073	-0.0462	0.0165	0.9585
3.59	47.8472	541.0249	45.9007	-196.9277	-10.0961	364.1425	-20.9222	368.4077	-16.7326	141.5409	24.9446	334.4544	-0.0592	0.0182	-0.0073	-0.0462	0.0165	0.9585
3.6036	45.1004	497.7633	41.8115	-180.8109	-8.7037	334.7086	-28.5719	410.3865	-21.2646	157.5891	32.0235	372.2877	-0.0592	0.0182	-0.0073	-0.0462	0.0165	0.9585
3.6171	41.6228	450.209	37.3036	-163.2825	-7.3065	302.5549	-34.6883	446.3916	-24.8567	171.3731	37.545	404.3037	-0.0592	0.0182	-0.0073	-0.0462	0.0165	0.9585
3.6307	37.4181	399.1867	32.5478	-144.6116	-6.006	268.2091	-39.1363	478.4826	-27.4864	183.6599	41.4502	432.3606	-0.0592	0.0182	-0.0073	-0.0462	0.0165	0.9585
3.6443	32.4746	345.9235	27.6699	-125.2122	-4.8788	232.4722	-42.0599	508.8006	-29.4785	195.2178	44.1057	458.4163	-0.0592	0.0182	-0.0073	-0.0462	0.0165	0.9585
3.6579	26.7965	292.0037	22.8402	-105.6282	-4.0314	196.3888	-43.8104	539.1569	-31.3536	206.6709	46.1314	484.1458	-0.0592	0.0182	-0.0073	-0.0462	0.0165	0.9585
3.6714	20.4834	239.2619	18.2759	-86.4973	-3.5703	161.164	-44.8779	570.7604	-33.7365	218.4036	48.2857	510.7124	-0.0592	0.0182	-0.0073	-0.0462	0.0165	0.9585
3.685	13.8197	189.6078	14.1811	-68.4927	-3.5263	128.0389	-45.7683	604.0401	-37.0875	230.5212	51.1773	538.5718	-0.0592	0.0182	-0.0073	-0.0462	0.0165	0.9585
3.6986	7.2865	144.7682	10.7097	-52.2309	-3.8205	98.1209	-46.9	638.6386	-41.5946	242.8636	55.1336	567.4604	-0.0592	0.0182	-0.0073	-0.0462	0.0165	0.9585
3.7121	1.475	105.9881	7.921	-38.1633	-4.2708	72.1951	-48.4651	673.5865	-47.0448	255.0812	60.0382	596.528	-0.0592	0.0182	-0.0073	-0.0462	0.0165	0.9585
3.7257	-3.1121	73.8209	5.7744	-26.4976	-4.6608	50.6111	-50.3775	707.4292	-52.9528	266.6822	65.4373	624.4498	-0.0592	0.0182	-0.0073	-0.0462	0.0165	0.9585
3.7393	-6.1524	48.2116	4.1264	-17.2263	-4.7755	33.3381	-52.3863	738.3943	-58.7197	277.0817	70.7181	649.6147	-0.0592	0.0182	-0.0073	-0.0462	0.0165	0.9585
3.7529	-7.5686	28.721	2.8362	-10.195	-4.5032	20.1151	-54.1573	764.6191	-63.8009	285.6752	75.2924	670.3307	-0.0592	0.0182	-0.0073	-0.0462	0.0165	0.9585
3.7664	-7.5039	14.6678	1.7992	-5.1499	-3.839	10.5183	-55.3816	784.485	-67.7719	291.9513	78.6929	685.1497	-0.0592	0.0182	-0.0073	-0.0462	0.0165	0.9585
3.78	-6.4099	5.2719	0.98341	-1.7953	-2.9348	4.0439	-55.8187	796.9244	-70.3586	295.5968	80.6124	693.1363	-0.0592	0.0182	-0.0073	-0.0462	0.0165	0.9585
3.7936	-4.9082	-0.3123	0.3948	0.18875	-2.0204	0.14999	-55.3095	801.6803	-71.4501	296.584	80.918	694.0801	-0.0592	0.0182	-0.0073	-0.0462	0.0165	0.9585
3.8071	-3.3921	-3.0663	0.018285	1.1601	-1.2356	-1.8105	-53.8085	799.4361	-71.0813	295.2108	79.6393	688.5975	-0.0592	0.0182	-0.0073	-0.0462	0.0165	0.9585
3.8207	-2.0894	-3.9139	-0.19237	1.4479	-0.63169	-2.4493	-51.3742	791.7095	-69.4337	292.0552	76.9688	678.03	-0.0592	0.0182	-0.0073	-0.0462	0.0165	0.9585
